<svg width="25" height="24" viewBox="0 0 25 24" fill="none" xmlns="http://www.w3.org/2000/svg">
<path d="M7.02929 17.129C5.14235 15.819 3.64917 14.115 2.80542 13.039C2.56948 12.742 2.44141 12.3766 2.44141 12.0005C2.44141 11.6244 2.56948 11.259 2.80542 10.962C4.33235 9.013 7.99576 5 12.2728 5C14.1914 5 15.9853 5.807 17.5194 6.874" stroke="#66A39B" stroke-width="2" stroke-linecap="round" stroke-linejoin="round"/>
<path d="M14.4514 9.88749C14.1673 9.60515 13.829 9.3806 13.4557 9.22677C13.0825 9.07295 12.6819 8.9929 12.2768 8.99124C11.8718 8.98958 11.4705 9.06634 11.0959 9.21711C10.7214 9.36787 10.3811 9.58964 10.0947 9.86964C9.80828 10.1496 9.58138 10.4823 9.42711 10.8485C9.27283 11.2146 9.19422 11.6071 9.19582 12.0031C9.19743 12.3991 9.2792 12.7909 9.43644 13.1558C9.59367 13.5208 9.82325 13.8517 10.1119 14.1295" stroke="#66A39B" stroke-width="2" stroke-linecap="round" stroke-linejoin="round"/>
<path d="M4.09082 20L20.4545 4" stroke="#66A39B" stroke-width="2" stroke-linecap="round" stroke-linejoin="round"/>
<path d="M10.2275 18.704C10.8915 18.8972 11.5803 18.9969 12.273 19C16.55 19 20.2134 14.987 21.7404 13.038C21.9763 12.7407 22.1042 12.3751 22.104 11.9988C22.1038 11.6226 21.9755 11.2571 21.7394 10.96C21.2027 10.2755 20.627 9.62112 20.015 9" stroke="#66A39B" stroke-width="2" stroke-linecap="round" stroke-linejoin="round"/>
</svg>
