<svg width="298" height="117" viewBox="0 0 298 117" fill="none" xmlns="http://www.w3.org/2000/svg">
<path d="M61.7097 84.3388C61.8421 84.1642 61.9725 83.9885 62.1009 83.8116C62.5203 85.2183 63.0907 86.5729 63.8216 87.8654C65.6056 91.0202 68.1387 93.492 71.3344 95.2099L71.368 95.2278C74.5965 96.9318 78.1816 97.7162 81.9937 97.7162C86.969 97.7162 91.6192 96.5533 95.837 94.1717L95.8552 94.1613C99.3887 92.1466 102.323 89.5 104.609 86.248C104.848 86.8671 105.118 87.4743 105.421 88.0687L105.439 88.1045C106.994 91.0983 109.234 93.5114 112.119 95.232C112.142 95.2456 112.165 95.2589 112.188 95.2721C115.099 96.9464 118.348 97.7162 121.788 97.7162C124.919 97.7162 127.912 97.1322 130.707 95.9185C131.606 96.6901 132.759 97.1234 133.962 97.1234H143.241C145.667 97.1234 147.743 95.3822 148.165 92.9935L154.614 56.4995C154.871 55.0437 154.471 53.5488 153.521 52.4162C152.571 51.2835 151.169 50.6294 149.69 50.6294H140.411C139.133 50.6294 137.951 51.1131 137.058 51.9204C134.464 50.5916 131.547 50.0365 128.5 50.0365C124.522 50.0365 120.738 51.0278 117.215 52.9562C113.668 54.8978 110.709 57.6457 108.331 61.0853L108.301 61.1285C108.129 61.3831 107.961 61.6401 107.798 61.8995C107.503 61.2254 107.169 60.5659 106.795 59.922C104.993 56.7502 102.403 54.2956 99.1495 52.5985C95.9207 50.8468 92.3294 50.0365 88.5087 50.0365C83.5129 50.0365 78.8477 51.2314 74.6234 53.671L74.5992 53.685C72.0182 55.1949 69.7644 57.0597 67.8505 59.2617C67.3537 56.6922 66.4509 54.2749 65.0963 52.0555C62.9233 48.4225 59.7752 45.6989 55.8572 43.8679C51.9674 41.9853 47.5346 41.1436 42.7194 41.1436H26.6622C24.2378 41.1436 22.1628 42.8828 21.7391 45.2698L13.5789 91.2497C13.3204 92.7058 13.7199 94.2017 14.6699 95.3352C15.62 96.4687 17.023 97.1234 18.502 97.1234H34.5592C40.0916 97.1234 45.2636 96.0465 49.9904 93.8107C54.689 91.5883 58.6209 88.4249 61.7097 84.3388Z" fill="white" stroke="white" stroke-width="10" stroke-linejoin="round"/>
<path d="M160.78 97.1233C162.651 97.1233 164.366 96.0782 165.224 94.4147L168.039 88.955H177.974L178.613 92.9187C179.003 95.3419 181.095 97.1233 183.549 97.1233H195.461C196.366 97.1233 197.242 96.8781 198.004 96.4282C198.766 96.8782 199.642 97.1233 200.547 97.1233H228.845C231.269 97.1233 233.344 95.3844 233.768 92.9976L235.347 84.1047C235.606 82.6484 235.206 81.1524 234.256 80.0188C233.306 78.8852 231.903 78.2304 230.424 78.2304H219.349L219.41 77.8882H230.292C232.716 77.8882 234.79 76.1506 235.215 73.765L236.729 65.2673C236.988 63.8107 236.589 62.3141 235.639 61.1799C235.117 60.5564 234.458 60.0777 233.724 59.7729H235.426C237.85 59.7729 239.925 58.0341 240.348 55.6473L241.928 46.7543C242.187 45.2981 241.787 43.802 240.837 42.6684C240.253 41.9719 239.499 41.4561 238.66 41.1619L239.493 36.4789C239.856 34.4379 238.922 32.3847 237.144 31.3174L227.931 25.784C226.472 24.9074 224.666 24.8337 223.14 25.5886L211.953 31.1219C210.529 31.8261 209.525 33.1647 209.247 34.7285L208.147 40.9112C205.968 41.1553 204.172 42.8079 203.783 45.0111L197.948 78.0814L191.822 44.9704C191.384 42.6 189.316 40.88 186.906 40.88H173.876C172.035 40.88 170.344 41.8908 169.472 43.5113L144.597 89.7547C143.763 91.3042 143.805 93.1778 144.708 94.6881C145.611 96.1985 147.241 97.1233 149 97.1233H160.78Z" fill="white" stroke="white" stroke-width="10" stroke-linejoin="round"/>
<path d="M252.13 93.6335C251.902 93.7021 251.669 93.7544 251.434 93.7898C248.585 94.2183 245.836 94.0424 243.485 92.8087C240.998 91.5037 239.666 89.3924 239.058 87.4039L252.13 93.6335ZM252.13 93.6335C255.166 92.7203 257.82 91.0242 259.065 88.1008C260.225 85.3772 259.603 82.8065 259.209 81.5168L259.208 81.5138M252.13 93.6335L259.208 81.5138M259.208 81.5138C257.694 76.5662 252.053 73.7435 246.233 75.2903M259.208 81.5138L246.233 75.2903M246.233 75.2903C243.193 76.0983 240.852 77.904 239.596 80.4474M246.233 75.2903L239.596 80.4474M239.596 80.4474C238.415 82.84 238.442 85.3878 239.057 87.4008L239.596 80.4474Z" fill="white" stroke="white" stroke-width="10" stroke-linejoin="round"/>
<path d="M245.818 79.4333C245.485 77.6727 245.264 74.6054 245.128 72.0226C244.985 69.3203 244.904 66.5087 244.946 65.2383L244.946 65.2371C244.952 65.0465 244.957 64.7906 244.964 64.4785C244.999 62.7802 245.07 59.4178 245.502 55.8638C245.978 51.9437 246.997 46.6856 249.654 42.9024C255.21 33.6742 268.333 32.0442 275.228 40.0382L245.818 79.4333ZM245.818 79.4333C245.82 79.4531 245.823 79.4797 245.827 79.5143C245.827 79.5146 245.827 79.5155 245.827 79.5171C245.832 79.574 245.908 80.4661 246.352 81.3839C247.001 82.7243 248.12 83.6243 249.341 84.0626C250.262 84.3933 251.093 84.4049 251.437 84.4049C252.269 84.4049 253.087 84.1975 253.818 83.8016C256.393 82.4075 259.532 79.5533 262.226 76.9208C265.073 74.1386 267.992 71.0257 270.204 68.6665L270.207 68.6635C274.697 63.8751 277.673 58.8929 278.676 53.9418C279.717 48.8071 278.569 43.9123 275.228 40.0384L245.818 79.4333ZM255.755 78.3128C255.754 78.307 255.754 78.3008 255.753 78.2941C255.77 78.405 255.77 78.4431 255.762 78.3753L255.755 78.3128Z" fill="white" stroke="white" stroke-width="10" stroke-linejoin="round"/>
<path d="M42.7194 46.1436C46.975 46.1436 50.6384 46.8901 53.7094 48.3833C56.8243 49.8325 59.1934 51.9185 60.8167 54.6413C62.4839 57.364 63.3174 60.5918 63.3174 64.3247C63.3174 65.9935 63.1639 67.6184 62.8568 69.1993C62.0671 73.8105 60.3561 77.8507 57.7237 81.3201C55.1353 84.7455 51.8448 87.4024 47.8525 89.2908C43.8601 91.1792 39.429 92.1234 34.5592 92.1234H18.502L26.6622 46.1436H42.7194ZM35.6121 84.6138C40.4381 84.6138 44.3866 83.2524 47.4576 80.5296C50.5725 77.8068 52.5687 74.0301 53.4462 69.1993C53.6655 67.7501 53.7752 66.4985 53.7752 65.4445C53.7752 61.7556 52.6784 58.9011 50.4848 56.881C48.3351 54.8608 45.1763 53.8508 41.0084 53.8508H34.5592L29.1629 84.6138H35.6121ZM81.9937 92.7162C78.8788 92.7162 76.1148 92.0795 73.7018 90.8059C71.3327 89.5324 69.4901 87.7318 68.1739 85.4043C66.8578 83.0767 66.1997 80.3979 66.1997 77.3677C66.1997 73.2396 67.1649 69.4848 69.0953 66.1033C71.0695 62.6778 73.7457 59.977 77.1239 58.0008C80.5459 56.0246 84.3409 55.0365 88.5087 55.0365C91.6237 55.0365 94.3876 55.6952 96.8006 57.0127C99.2574 58.2863 101.144 60.0868 102.46 62.4144C103.82 64.7419 104.5 67.4208 104.5 70.4509C104.5 74.6229 103.513 78.3997 101.539 81.7812C99.5645 85.1627 96.8444 87.8416 93.3785 89.8178C89.9565 91.7501 86.1616 92.7162 81.9937 92.7162ZM83.2441 84.8114C85.4377 84.8114 87.4339 84.1746 89.2326 82.9011C91.0314 81.6275 92.4353 79.9368 93.4443 77.8288C94.4534 75.7208 94.9579 73.5031 94.9579 71.1756C94.9579 68.5406 94.2121 66.5205 92.7205 65.1152C91.2727 63.666 89.43 62.9413 87.1926 62.9413C84.9551 62.9413 82.9589 63.5781 81.204 64.8517C79.493 66.1252 78.1549 67.838 77.1897 69.9898C76.2245 72.0978 75.7419 74.3375 75.7419 76.7089C75.7419 79.3 76.4219 81.2981 77.782 82.7034C79.1859 84.1088 81.0066 84.8114 83.2441 84.8114ZM108.56 73.7446C109.218 70.0557 110.512 66.784 112.443 63.9294C114.417 61.0749 116.808 58.8791 119.616 57.3421C122.424 55.805 125.385 55.0365 128.5 55.0365C131.22 55.0365 133.501 55.5854 135.344 56.6833C137.231 57.7812 138.613 59.1646 139.49 60.8334L140.411 55.6294H149.69L143.241 92.1234H133.962L134.949 86.7876C133.501 88.5003 131.615 89.9276 129.29 91.0694C127.008 92.1673 124.508 92.7162 121.788 92.7162C119.111 92.7162 116.742 92.1234 114.68 90.9377C112.618 89.708 111.017 87.9953 109.876 85.7995C108.736 83.5598 108.165 80.9688 108.165 78.0264C108.165 76.665 108.297 75.2378 108.56 73.7446ZM137.187 73.8764C137.362 72.7346 137.45 71.9002 137.45 71.3732C137.45 68.7821 136.682 66.762 135.147 65.3128C133.655 63.8636 131.769 63.139 129.487 63.139C127.776 63.139 126.109 63.5562 124.486 64.3906C122.906 65.225 121.524 66.4546 120.34 68.0795C119.155 69.6605 118.366 71.5488 117.971 73.7446C117.839 74.579 117.773 75.3695 117.773 76.1161C117.773 78.751 118.519 80.837 120.011 82.3741C121.502 83.8672 123.389 84.6138 125.67 84.6138C127.381 84.6138 129.048 84.1966 130.672 83.3622C132.295 82.4839 133.677 81.2323 134.818 79.6074C136.002 77.9825 136.792 76.0722 137.187 73.8764Z" fill="#47C0A1"/>
<path d="M182.233 83.955H164.991L160.78 92.1233H149L173.876 45.88H186.906L195.461 92.1233H183.549L182.233 83.955ZM180.917 75.3914L178.219 58.2642L169.401 75.3914H180.917ZM218.381 54.7729L216.736 64.3905H231.806L230.292 72.8882H215.222L213.38 83.2304H230.424L228.845 92.1233H200.547L208.707 45.88H237.005L235.426 54.7729H218.381ZM224.041 37.6458L212.787 43.3768L214.169 35.6037L225.357 30.0703L234.57 35.6037L233.188 43.3768L224.041 37.6458Z" fill="#007067"/>
<path d="M250.69 88.8454C255.175 87.4966 255.026 84.939 254.427 82.9774C253.827 81.0159 251.179 79.1492 247.517 80.1225C243.855 81.0958 243.239 83.9787 243.839 85.9402C244.438 87.9018 246.207 89.5198 250.69 88.8454Z" fill="#007067"/>
<path d="M271.442 43.304C266.928 38.0712 257.749 38.924 253.846 45.6356C249.943 50.9818 250.035 62.5847 249.943 65.4001C249.876 67.4742 250.217 75.894 250.742 78.5653C250.857 79.1539 250.69 79.4049 251.437 79.4049C255.173 77.3817 262.111 69.9878 266.56 65.2434C274.78 56.4769 275.955 48.5363 271.442 43.304ZM263.878 54.0036C260.699 54.5654 257.962 52.0142 258.565 49.0489C258.903 47.3925 260.335 46.0562 262.111 45.7421C265.29 45.1802 268.027 47.7316 267.423 50.6969C267.087 52.3539 265.655 53.6894 263.878 54.0036Z" fill="#007067"/>
</svg>
