<svg width="38" height="38" viewBox="0 0 38 38" fill="none" xmlns="http://www.w3.org/2000/svg">
<path d="M20.0458 29.994L20.0477 29.9964L21.8975 30.0834L21.8883 30.8751C21.8903 30.8751 21.8922 30.8751 21.8942 30.8751C22.3459 30.8793 22.7894 30.7545 23.1727 30.5155C23.5577 30.2754 23.8659 29.93 24.0608 29.5203C24.2557 29.1105 24.3291 28.6535 24.2724 28.2034C24.216 27.7555 24.0331 27.333 23.7452 26.9855L17.3162 19.0087L23.978 11.0205L23.9788 11.0195C24.3818 10.5347 24.5757 9.90963 24.5178 9.28188C24.4599 8.65413 24.155 8.07508 23.6702 7.67212C23.1854 7.26916 22.5604 7.07529 21.9326 7.13317C21.3051 7.19103 20.7263 7.4957 20.3233 7.98018C20.3232 7.98037 20.323 7.98056 20.3228 7.98074L12.4068 17.48L12.4068 17.48L12.4034 17.4841C12.0541 17.909 11.8631 18.4421 11.8631 18.9922C11.8631 19.5408 12.0531 20.0725 12.4006 20.4969L20.0458 29.994Z" fill="white" stroke="white" stroke-width="1.58333"/>
</svg>
