<svg width="24" height="24" viewBox="0 0 24 24" fill="none" xmlns="http://www.w3.org/2000/svg">
<path d="M12.6607 18.9438L12.6619 18.9453C12.803 19.1193 12.9814 19.2595 13.1839 19.3555C13.3852 19.451 13.6053 19.5005 13.8281 19.5003C14.1134 19.5029 14.3935 19.4241 14.6356 19.2731C14.8787 19.1215 15.0734 18.9034 15.1964 18.6446C15.3195 18.3858 15.3659 18.0972 15.3301 17.8129C15.2944 17.53 15.179 17.2632 14.9972 17.0437L10.9367 12.0057L15.1442 6.96051L15.1447 6.95988C15.3992 6.65368 15.5216 6.25892 15.4851 5.86245C15.4485 5.46597 15.256 5.10026 14.9498 4.84576C14.6436 4.59125 14.2488 4.46881 13.8523 4.50537C13.4559 4.54192 13.0902 4.73443 12.8357 5.04057C12.8357 5.0406 12.8357 5.04064 12.8356 5.04067L7.83605 11.0402L7.83604 11.0402L7.83391 11.0428C7.61329 11.3112 7.49268 11.6478 7.49268 11.9953C7.49268 12.3418 7.61263 12.6775 7.8321 12.9456L12.6607 18.9438Z" fill="black" stroke="black"/>
</svg>
