<svg width="20" height="20" viewBox="0 0 20 20" fill="none" xmlns="http://www.w3.org/2000/svg">
<path d="M5.83301 9.16699H7.49967V10.8337H5.83301V9.16699ZM5.83301 12.5003H7.49967V14.167H5.83301V12.5003ZM9.16634 9.16699H10.833V10.8337H9.16634V9.16699ZM9.16634 12.5003H10.833V14.167H9.16634V12.5003ZM12.4997 9.16699H14.1663V10.8337H12.4997V9.16699ZM12.4997 12.5003H14.1663V14.167H12.4997V12.5003Z" fill="#389674"/>
<path d="M4.16667 18.3337H15.8333C16.7525 18.3337 17.5 17.5862 17.5 16.667V5.00033C17.5 4.08116 16.7525 3.33366 15.8333 3.33366H14.1667V1.66699H12.5V3.33366H7.5V1.66699H5.83333V3.33366H4.16667C3.2475 3.33366 2.5 4.08116 2.5 5.00033V16.667C2.5 17.5862 3.2475 18.3337 4.16667 18.3337ZM15.8333 6.66699L15.8342 16.667H4.16667V6.66699H15.8333Z" fill="#389674"/>
</svg>
