<svg width="98" height="96" viewBox="0 0 98 96" fill="none" xmlns="http://www.w3.org/2000/svg">
<path d="M32.8199 41.3716V67.4943M32.8199 41.3716L7.09324 54.4955M32.8199 41.3716L45.6833 47.9336L58.5466 54.4955M32.8199 41.3716L58.5466 54.4955M32.8199 41.3716L32.8199 15.1239M32.8199 67.4943L38.8953 76.7898L64.622 63.791L58.5466 54.4955M32.8199 67.4943L58.5466 54.4955M32.8199 67.4943L32.8199 93.8671M32.8199 67.4943L7.09324 54.4955M7.09324 54.4955L2 62.2884L6.5163 59.985L7.09324 54.4955ZM7.09324 54.4955V80.7433L32.8199 93.8671M58.5466 54.4955L84.2733 67.4943M58.5466 54.4955L84.2733 41.3716M58.5466 54.4955V28.1227M97.1367 47.9336L71.4405 61.039M97.1367 47.9336L84.2733 41.3716M97.1367 47.9336L110 54.4955M84.2733 67.4943V93.8671M84.2733 67.4943L110 54.4955M84.2733 93.8671L110 80.7433L110 54.4955M84.2733 93.8671L58.5466 80.7433M84.2733 41.3716L84.2733 15.1239M58.5466 80.7433V66.8607M58.5466 80.7433L32.8199 93.8671M71.41 8.56194L45.7138 21.6674M71.41 8.56194L58.5466 2L32.8199 15.1239M71.41 8.56194L84.2733 15.1239M58.5466 28.1227L32.8199 15.1239M58.5466 28.1227L84.2733 15.1239" stroke="white" stroke-opacity="0.25" stroke-width="4" stroke-linecap="round" stroke-linejoin="round"/>
</svg>
