<svg width="34" height="34" viewBox="0 0 34 34" fill="none" xmlns="http://www.w3.org/2000/svg">
<path d="M14.7122 30.8664C14.8816 30.999 15.079 31.0911 15.2894 31.1358C15.4999 31.1805 15.7177 31.1765 15.9263 31.1242L27.2597 28.2909C27.5664 28.2146 27.8388 28.0379 28.0334 27.7889C28.228 27.5398 28.3337 27.2328 28.3335 26.9167V7.08339C28.3334 6.76739 28.2277 6.46048 28.0331 6.21149C27.8385 5.96249 27.5663 5.7857 27.2597 5.70923L15.9263 2.87589C15.7176 2.82468 15.5 2.82148 15.2898 2.86654C15.0797 2.9116 14.8825 3.00374 14.7131 3.13602C14.5437 3.26831 14.4066 3.4373 14.312 3.63026C14.2173 3.82323 14.1677 4.03514 14.1668 4.25006V5.66673H8.50016C8.12444 5.66673 7.7641 5.81598 7.49843 6.08166C7.23275 6.34734 7.0835 6.70767 7.0835 7.08339V26.9167C7.0835 27.2924 7.23275 27.6528 7.49843 27.9185C7.7641 28.1841 8.12444 28.3334 8.50016 28.3334H14.1668V29.7501C14.1668 30.1864 14.368 30.5986 14.7122 30.8664ZM17.0002 6.06481L25.5002 8.18981V25.8103L17.0002 27.9353V6.06481ZM9.91683 25.5001V8.50006H14.1668V25.5001H9.91683Z" fill="black"/>
<path d="M20.176 18.642C20.8078 18.4834 21.2498 17.9167 21.2498 17.2664V16.7324C21.2496 16.3566 21.1002 15.9964 20.8344 15.7308C20.5686 15.4653 20.2082 15.3162 19.8325 15.3164C19.4567 15.3166 19.0965 15.466 18.8309 15.7318C18.5654 15.9976 18.4163 16.3581 18.4165 16.7338V17.2679C18.4166 17.4831 18.4656 17.6954 18.56 17.8888C18.6544 18.0822 18.7916 18.2515 18.9612 18.384C19.1308 18.5164 19.3283 18.6085 19.5388 18.6532C19.7493 18.6979 19.9672 18.6941 20.176 18.642Z" fill="black"/>
</svg>
