<svg width="106" height="77" viewBox="0 0 106 77" fill="none" xmlns="http://www.w3.org/2000/svg">
<path d="M124.864 37.4077V43.8374M124.864 50.2671V56.6968M114.32 37.4077V43.8374M114.32 50.2671V56.6968M93.7708 37.4077V43.8374M93.7708 50.2671V56.6968M72.6347 37.4077V43.8374M72.6347 50.2671V56.6968M51.4986 37.4077V43.8374M51.4986 50.2671V56.6968M30.9497 37.4077V43.8374M30.9497 50.2671V56.6968M20.4052 37.4077V43.8374M20.4052 50.2671V56.6968M4.32162 29.6619H140.946M135.409 29.6619H9.8589V22.7181H72.6338H135.409V29.6619ZM135.409 29.6619H9.86072V64.4426M135.409 29.6619V64.4426M9.86072 64.4426H135.409M9.86072 64.4426C8.83041 64.0981 7.64055 64.0147 6.53777 64.2062C5.43499 64.3977 4.43099 64.8612 3.69308 65.488C2.95517 66.1147 2.48661 66.8946 2.2491 67.7019C2.0116 68.5092 2 69.3414 2 70.167V74.2551H143.269V70.167C143.269 69.3414 143.258 68.5092 143.02 67.7019C142.783 66.8946 142.314 66.1147 141.576 65.488C140.838 64.8612 139.834 64.3977 138.732 64.2062C137.629 64.0147 136.439 64.0981 135.409 64.4426M61.5022 29.6619H83.7653V64.4426H61.5022V29.6619ZM41.4932 22.7181L72.6338 2.81152L103.774 22.7181V64.4426H41.4932V22.7181Z" stroke="white" stroke-opacity="0.25" stroke-width="4" stroke-linecap="round" stroke-linejoin="round"/>
</svg>
