<svg width="14" height="20" viewBox="0 0 14 20" fill="none" xmlns="http://www.w3.org/2000/svg">
<path d="M6.67978 6.39673L2.42898 8.69681V11.1738H3.65699V9.40453L6.67978 7.77318L8.34974 8.69681L5.45515 10.3334L6.6393 10.9969L10.9306 8.69681L6.67978 6.39673Z" fill="white"/>
<path d="M3.65699 12.0645H2.42898V14.4088L6.67978 16.7606L10.9306 14.4125L9.71607 13.6568L6.67978 15.3032L3.65699 13.6568V12.0645Z" fill="white"/>
<path d="M1.21452 11.1735H0V7.24661L6.72032 3.56258L12.1452 6.5179V0.647741L13.3597 0V11.1735H12.1047V7.89435L6.72032 4.93903L1.21452 7.97532V11.1735Z" fill="white"/>
<path d="M1.21452 12.0645H0V15.8295L6.72032 19.473L13.3597 15.8295V12.0645H12.1452V15.1412L6.63935 18.0965L1.21452 15.1007V12.0645Z" fill="white"/>
</svg>
