<svg width="76" height="67" viewBox="0 0 76 67" fill="none" xmlns="http://www.w3.org/2000/svg">
<g clip-path="url(#clip0)">
<path d="M22.0281 24.0353C21.6933 24.0021 21.3564 24.0734 21.0638 24.2393L6.48045 32.5112C6.29653 32.6155 6.13774 32.7587 6.01523 32.9307C5.89271 33.1028 5.80945 33.2995 5.77128 33.507L0.0314244 64.7328C-0.0326325 65.0812 0.00166085 65.4404 0.130475 65.7705C0.259289 66.1005 0.477553 66.3883 0.760894 66.6018C1.04423 66.8153 1.3815 66.946 1.73502 66.9794C2.08854 67.0127 2.44441 66.9475 2.76288 66.7908L19.0725 58.7691L37.6178 66.9994L56.1631 58.7691L72.473 66.7908C72.7915 66.9474 73.1473 67.0127 73.5009 66.9794C73.8544 66.946 74.1916 66.8153 74.475 66.6018C74.7583 66.3883 74.9766 66.1005 75.1054 65.7704C75.2342 65.4404 75.2685 65.0812 75.2045 64.7328L69.4649 33.507C69.4267 33.2995 69.3434 33.1028 69.2209 32.9307C69.0984 32.7587 68.9396 32.6155 68.7557 32.5112L54.1721 24.2393C53.9374 24.1094 53.6742 24.0395 53.4058 24.0358C53.3902 24.0355 53.3746 24.0354 53.359 24.0355L53.3323 24.0382C53.0678 24.0408 52.8078 24.1077 52.575 24.2331L50.1504 25.5838H37.6178H25.0852L22.6609 24.2331C22.6608 24.2331 22.6607 24.2331 22.6606 24.2331C22.5654 24.1875 22.466 24.1513 22.3637 24.1249C22.3312 24.1188 22.2984 24.1137 22.2655 24.1096C22.1884 24.0788 22.109 24.054 22.0281 24.0353L22.0281 24.0353Z" fill="#44C868"/>
<path d="M53.4053 24.0361C53.4141 24.0384 53.4229 24.0407 53.4316 24.0431L56.1625 58.7694L72.4724 66.7911C72.7909 66.9478 73.1467 67.0131 73.5003 66.9797C73.8538 66.9463 74.191 66.8156 74.4744 66.6021C74.7577 66.3886 74.976 66.1008 75.1048 65.7708C75.2336 65.4407 75.2679 65.0815 75.2039 64.7331L69.4643 33.5073C69.4261 33.2998 69.3429 33.1031 69.2204 32.931C69.0978 32.759 68.9391 32.6158 68.7551 32.5115L54.1715 24.2396C53.9368 24.1098 53.6736 24.0399 53.4053 24.0361V24.0361Z" fill="#44C868"/>
<path d="M53.3587 24.0361C53.0848 24.0351 52.8152 24.1031 52.5747 24.2337C52.8075 24.1083 53.0675 24.0414 53.332 24.0388L53.3587 24.0361Z" fill="#4CE166"/>
<path d="M53.3584 24.0362L53.3317 24.0389C53.0671 24.0414 52.8072 24.1083 52.5744 24.2338L50.1497 25.5845H37.6172V67L56.1625 58.7697L53.4316 24.0434C53.4228 24.041 53.414 24.0387 53.4052 24.0365C53.3896 24.0362 53.374 24.0361 53.3584 24.0362L53.3584 24.0362Z" fill="#4CE166"/>
<path d="M22.6599 24.2339C22.5647 24.1883 22.4653 24.1521 22.363 24.1257C22.2607 24.0995 22.1561 24.0832 22.0506 24.0771L19.0718 58.7699L37.6171 67.0001V25.5846H25.0845L22.6602 24.2339C22.6601 24.2339 22.66 24.2339 22.6599 24.2339H22.6599Z" fill="#44C868"/>
<path d="M22.0281 24.0353C21.6933 24.0021 21.3564 24.0734 21.0638 24.2393L6.48045 32.5112C6.29653 32.6155 6.13774 32.7587 6.01523 32.9307C5.89271 33.1028 5.80945 33.2995 5.77128 33.507L0.0314244 64.7328C-0.0326325 65.0812 0.00166085 65.4404 0.130475 65.7704C0.259289 66.1005 0.477553 66.3883 0.760894 66.6018C1.04423 66.8153 1.3815 66.946 1.73502 66.9794C2.08854 67.0127 2.44441 66.9474 2.76288 66.7908L19.0725 58.7691L22.0513 24.0763C22.1568 24.0824 22.2614 24.0986 22.3637 24.1249C22.466 24.1513 22.5654 24.1875 22.6606 24.2331C22.4656 24.1245 22.2503 24.0572 22.0281 24.0353V24.0353Z" fill="#4CE166"/>
<path d="M37.6177 61.5186V66.9994L40.5195 65.7115L37.6177 61.5186Z" fill="#A8EEFC"/>
<path d="M20.9091 37.375L3.37025 46.5669L0.0313973 64.7323C-0.0326245 65.0806 0.00168099 65.4398 0.130484 65.7698C0.259287 66.0998 0.477518 66.3876 0.760812 66.601C1.04411 66.8145 1.38131 66.9452 1.73479 66.9786C2.08826 67.012 2.44409 66.9468 2.76255 66.7902L19.0722 58.7686L20.9091 37.375Z" fill="#A8EEFC"/>
<path d="M20.9086 37.375L19.0718 58.7686L37.6169 66.9988V61.518L20.9086 37.375Z" fill="#1EA4E9"/>
<path d="M63.3351 29.4375L49.7881 34.419L74.8618 62.8736L69.4643 33.5075C69.4262 33.3 69.3429 33.1033 69.2204 32.9312C69.0979 32.7592 68.9391 32.616 68.7552 32.5117L63.3351 29.4375Z" fill="#1EA4E9"/>
<path d="M54.2695 34.6826L54.9141 42.8817V42.8819L74.6514 66.4395C74.8765 66.222 75.0447 65.9527 75.1411 65.6552C75.2375 65.3578 75.2593 65.0413 75.2045 64.7335L73.9162 57.7235V57.7232L54.2695 34.6826Z" fill="#FFBB24"/>
<path d="M53.8467 29.3188L54.2687 34.6825L67.3345 31.7063L60.6711 27.9268H60.6708L53.8467 29.3188Z" fill="#FFBB24"/>
<path d="M37.6172 36.3407V41.8886L48.0514 37.3607L54.9127 42.8812L54.2681 34.6821L53.8461 29.3184L37.6172 36.3407Z" fill="#FFDB56"/>
<path d="M37.6177 67.0002L44.6087 63.8975L37.6177 56.6162V67.0002Z" fill="#FFDB56"/>
<path d="M21.184 34.1709L4.01555 43.0557L2.82275 49.5453L20.6554 40.327L21.184 34.1709Z" fill="#FFDB56"/>
<path d="M21.1838 34.1709L20.6553 40.327L37.6168 66.9996V56.6156L27.5975 40.7962L37.6168 41.8887V36.3408L21.1838 34.1709Z" fill="#FFBB24"/>
<path d="M37.6168 5.91953e-10C29.1319 -7.58597e-05 22.2535 7.29113 22.2534 16.2854C22.2571 19.7888 23.2935 22.6623 25.0909 25.5876C27.4646 29.451 36.0435 39.6419 37.6569 39.6419C39.3307 39.6419 48.3769 28.7765 50.1492 25.5841C51.9216 22.3917 52.9785 19.6101 52.9802 16.2854C52.9802 7.29113 46.1017 -7.58597e-05 37.6168 5.91953e-10ZM37.6168 9.66809C38.3643 9.66807 39.1045 9.81489 39.7951 10.1002C40.4857 10.3854 41.1132 10.8036 41.6417 11.3307C42.1703 11.8578 42.5896 12.4836 42.8756 13.1724C43.1617 13.8611 43.309 14.5993 43.309 15.3448C43.309 16.0903 43.1618 16.8286 42.8757 17.5174C42.5897 18.2061 42.1704 18.832 41.6418 19.3591C41.1133 19.8863 40.4858 20.3045 39.7951 20.5897C39.1045 20.875 38.3643 21.0219 37.6168 21.0218C36.8693 21.0218 36.1292 20.875 35.4386 20.5897C34.748 20.3044 34.1205 19.8862 33.592 19.359C33.0635 18.8319 32.6442 18.206 32.3582 17.5173C32.0721 16.8285 31.9249 16.0903 31.9249 15.3448C31.925 13.8393 32.5247 12.3954 33.5921 11.3308C34.6595 10.2662 36.1073 9.66812 37.6168 9.66809Z" fill="#FF4A4A"/>
<path d="M37.6169 5.91953e-10C37.2847 -3.02226e-06 36.9559 0.0150273 36.6289 0.0370414C44.2357 2.0897 49.8621 9.39882 49.8621 18.1012C49.8601 21.9066 48.6506 25.0903 46.622 28.7442C45.5003 30.7647 41.8335 35.4667 38.4547 39.2704C41.2248 37.3527 48.5706 28.4277 50.1493 25.5841C51.9216 22.3917 52.9785 19.6101 52.9803 16.2854C52.9802 7.29114 46.1018 -7.58597e-05 37.6169 5.91953e-10Z" fill="#E7343F"/>
</g>
<defs>
<clipPath id="clip0">
<rect width="75.2359" height="67" fill="white"/>
</clipPath>
</defs>
</svg>
