<svg width="24" height="24" viewBox="0 0 24 24" fill="none" xmlns="http://www.w3.org/2000/svg">
<path d="M9.5003 3C11.2242 3 12.8774 3.68482 14.0964 4.90381C15.3153 6.12279 16.0001 7.77609 16.0001 9.5C16.0001 11.11 15.4101 12.59 14.4402 13.73L14.7101 14H15.5001L20.5 19L19 20.5L14.0002 15.5V14.71L13.7302 14.44C12.5508 15.4468 11.051 15.9999 9.5003 16C7.77644 16 6.12319 15.3152 4.90424 14.0962C3.68529 12.8772 3.00049 11.2239 3.00049 9.5C3.00049 7.77609 3.68529 6.12279 4.90424 4.90381C6.12319 3.68482 7.77644 3 9.5003 3ZM9.5003 5C7.00037 5 5.00043 7 5.00043 9.5C5.00043 12 7.00037 14 9.5003 14C12.0002 14 14.0002 12 14.0002 9.5C14.0002 7 12.0002 5 9.5003 5Z" fill="#47C0A1"/>
</svg>
