<svg width="11" height="11" viewBox="0 0 11 11" fill="none" xmlns="http://www.w3.org/2000/svg">
<path d="M10.2056 3.98808L7.06634 3.53185L5.66302 0.686881C5.62469 0.608988 5.56164 0.545931 5.48374 0.507603C5.28839 0.411163 5.051 0.49153 4.95332 0.686881L3.55 3.53185L0.410774 3.98808C0.324226 4.00045 0.245096 4.04125 0.184512 4.10307C0.111269 4.17835 0.0709094 4.27963 0.0723004 4.38465C0.0736914 4.48967 0.11672 4.58984 0.19193 4.66316L2.46321 6.87756L1.92661 10.0044C1.91402 10.0772 1.92207 10.152 1.94984 10.2204C1.97761 10.2888 2.02399 10.348 2.08371 10.3914C2.14344 10.4348 2.21413 10.4605 2.28776 10.4658C2.36139 10.471 2.43502 10.4556 2.5003 10.4211L5.30817 8.94483L8.11605 10.4211C8.1927 10.4619 8.28172 10.4755 8.36704 10.4607C8.58217 10.4236 8.72683 10.2196 8.68974 10.0044L8.15314 6.87756L10.4244 4.66316C10.4862 4.60257 10.527 4.52344 10.5394 4.4369C10.5728 4.22053 10.4219 4.02023 10.2056 3.98808Z" fill="#007067"/>
</svg>
