<svg width="10" height="16" viewBox="0 0 10 16" fill="none" xmlns="http://www.w3.org/2000/svg">
<path d="M6.66068 14.9438L6.66186 14.9453C6.80304 15.1193 6.98142 15.2595 7.18389 15.3555C7.38523 15.451 7.6053 15.5005 7.82812 15.5003C8.11336 15.5029 8.39346 15.4241 8.63555 15.2731C8.87872 15.1215 9.07336 14.9034 9.19644 14.6446C9.31953 14.3858 9.3659 14.0972 9.33008 13.8129C9.29445 13.53 9.17895 13.2632 8.99717 13.0437L4.93671 8.00569L9.14416 2.96051L9.14468 2.95988C9.39919 2.65368 9.52163 2.25892 9.48507 1.86245C9.44852 1.46597 9.25596 1.10026 8.94976 0.845756C8.64357 0.591254 8.24881 0.468812 7.85233 0.505367C7.45591 0.541917 7.09023 0.734433 6.83573 1.04057C6.8357 1.0406 6.83567 1.04064 6.83564 1.04067L1.83605 7.04018L1.83604 7.04018L1.83391 7.04278C1.61329 7.31117 1.49268 7.64784 1.49268 7.99528C1.49268 8.34176 1.61263 8.67754 1.8321 8.94557L6.66068 14.9438Z" fill="black" stroke="black"/>
</svg>
